uphill_walking_calibrated_grf.mot
version=1
nRows=7
nColumns=37
inDegrees=yes
endheader
time	ground_force1_vx	ground_force1_vy	ground_force1_vz	ground_force1_px	ground_force1_py	ground_force1_pz	ground_torque1_x	ground_torque1_y	ground_torque1_z	ground_force2_vx	ground_force2_vy	ground_force2_vz	ground_force2_px	ground_force2_py	ground_force2_pz	ground_torque2_x	ground_torque2_y	ground_torque2_z	femur_assistance_force_vx	femur_assistance_force_vy	femur_assistance_force_vz	femur_assistance_force_px	femur_assistance_force_py	femur_assistance_force_pz	femur_assistance_torque_x	femur_assistance_torque_y	femur_assistance_torque_z	tibia_assistance_force_vx	tibia_assistance_force_vy	tibia_assistance_force_vz	tibia_assistance_force_px	tibia_assistance_force_py	tibia_assistance_force_pz	tibia_assistance_torque_x	tibia_assistance_torque_y	tibia_assistance_torque_z
     25.60000000	    286.14035000	    705.54260300	     24.76720800	      0.47049200	      0.00000000	     -0.64980000	     -0.00001700	      4.12235900	      0.00001700	     53.57086600	    130.74900800	     -0.57335200	      1.02189100	      0.00000000	     -0.48512400	      0.00000000	      0.50761700	     -0.00000100	      0.00000000	      0.00000000	      0.00000000	     -0.10000504	     -0.19600140	      0.00000000	      0.00000000	      0.00000000	      0.00000000	      0.00000000	     -0.00000000	      0.00000000	     -0.08000000	     -0.14078685	      0.00000000	      0.00000000	      0.00000000	      0.00000000
     25.60100000	    287.13217200	    702.94860800	     24.30944400	      0.46788700	      0.00000000	     -0.64928300	     -0.00000400	      4.03834600	      0.00001000	     57.69073900	    137.31028700	      0.95252700	      1.01395500	      0.00000000	     -0.46772100	      0.00000200	      4.00370400	      0.00001400	      0.00000000	      0.00000000	      0.00000000	     -0.10000504	     -0.19600140	      0.00000000	      0.00000000	      0.00000000	      0.00000000	      0.00000000	     -0.00000000	      0.00000000	     -0.08000000	     -0.14078685	      0.00000000	      0.00000000	      0.00000000	      0.00000000
     25.60200000	    287.81881700	    700.35461400	     24.38573800	      0.46543700	      0.00000000	     -0.64815300	      0.00003200	      4.28312200	     -0.00000700	     58.75885400	    141.27757300	      3.69910900	      1.00017000	      0.00000000	     -0.46279500	      0.00000700	      8.01764900	      0.00000200	      0.00000000	      0.00000000	      0.00000000	     -0.10000504	     -0.19600140	      0.00000000	      0.00000000	      0.00000000	      0.00000000	      0.00000000	     -0.00000000	      0.00000000	     -0.08000000	     -0.14078685	      0.00000000	      0.00000000	      0.00000000	      0.00000000
     25.60300000	    287.51364100	    699.28649900	     24.30944400	      0.46527500	      0.00000000	     -0.64821900	      0.00000400	      3.61051400	      0.00002100	     61.12396600	    144.17674300	      5.75904500	      0.98005800	      0.00000000	     -0.46576600	      0.00000200	     10.96160400	      0.00000000	      0.00000000	      0.00000000	      0.00000000	     -0.10000504	     -0.19600140	      0.00000000	      0.00000000	      0.00000000	      0.00000000	      0.00000000	     -0.00000000	      0.00000000	     -0.08000000	     -0.14078685	      0.00000000	      0.00000000	      0.00000000	      0.00000000
     25.60400000	    287.81881700	    698.37097200	     23.69909300	      0.46728300	      0.00000000	     -0.64821400	     -0.00002400	      3.50398300	      0.00000600	     66.61713400	    145.09227000	      5.37757500	      0.95957200	      0.00000000	     -0.48091500	      0.00000500	     11.23481600	      0.00000600	      0.00000000	      0.00000000	      0.00000000	     -0.10000504	     -0.19600140	      0.00000000	      0.00000000	      0.00000000	      0.00000000	      0.00000000	     -0.00000000	      0.00000000	     -0.08000000	     -0.14078685	      0.00000000	      0.00000000	      0.00000000	      0.00000000
     25.60500000	    288.58175700	    699.13391100	     22.63097800	      0.46904300	      0.00000000	     -0.64951300	     -0.00000600	      3.33716700	     -0.00000300	     74.17023500	    143.87156700	      3.31763800	      0.94310800	      0.00000000	     -0.50069200	      0.00000400	      9.08235100	      0.00001200	      0.00000000	      0.00000000	      0.00000000	     -0.10000504	     -0.19600140	      0.00000000	      0.00000000	      0.00000000	      0.00000000	      0.00000000	     -0.00000000	      0.00000000	     -0.08000000	     -0.14078685	      0.00000000	      0.00000000	      0.00000000	      0.00000000
     25.60600000	    289.42099000	    698.98132300	     21.63915600	      0.47106700	      0.00000000	     -0.64984700	      0.00002800	      2.83532700	      0.00001400	     80.96039600	    143.87156700	      1.48658300	      0.92529000	      0.00000000	     -0.51087400	      0.00000200	      6.36749000	      0.00000700	      0.00000000	      0.00000000	      0.00000000	     -0.10000504	     -0.19600140	      0.00000000	      0.00000000	      0.00000000	      0.00000000	      0.00000000	     -0.00000000	      0.00000000	     -0.08000000	     -0.14078685	      0.00000000	      0.00000000	      0.00000000	      0.00000000
